<svg xmlns="http://www.w3.org/2000/svg" viewBox="0 0 67.7 8.95"><defs><style>.cls-1{fill:#3c3c3c;}</style></defs><title>logo</title><g id="Слой_2" data-name="Слой 2"><g id="Capa_1" data-name="Capa 1"><path class="cls-1" d="M8,5.45A3.89,3.89,0,0,1,6.83,8,3.73,3.73,0,0,1,4.13,9a3.88,3.88,0,0,1-3-1.23A4.62,4.62,0,0,1,0,4.46,4.59,4.59,0,0,1,1.15,1.27,3.91,3.91,0,0,1,4.2,0,3.85,3.85,0,0,1,6.76.86,3.08,3.08,0,0,1,7.9,3.06H6.06A1.79,1.79,0,0,0,5.42,2a2,2,0,0,0-1.25-.39A2,2,0,0,0,2.85,2,2.34,2.34,0,0,0,2.1,3.08a4.31,4.31,0,0,0-.22,1.39A3.34,3.34,0,0,0,2.5,6.58a2,2,0,0,0,1.64.79q1.72,0,2-1.92Z"/><path class="cls-1" d="M13.08,0a4,4,0,0,1,3,1.24,4.57,4.57,0,0,1,1.16,3.25,4.53,4.53,0,0,1-1.16,3.23,4,4,0,0,1-3,1.23A4,4,0,0,1,10,7.72,4.51,4.51,0,0,1,8.84,4.49,4.56,4.56,0,0,1,10,1.23,4,4,0,0,1,13.08,0Zm0,1.54a2,2,0,0,0-1.69.79,3.32,3.32,0,0,0-.63,2.12,3.37,3.37,0,0,0,.62,2.16,2.11,2.11,0,0,0,1.72.79,2,2,0,0,0,1.68-.79,3.45,3.45,0,0,0,.61-2.16,3.33,3.33,0,0,0-.62-2.13A2,2,0,0,0,13.06,1.54Z"/><path class="cls-1" d="M18.62.2h4.25a3.38,3.38,0,0,1,2.08.6,2.13,2.13,0,0,1,.8,1.82,2.35,2.35,0,0,1-.36,1.3,2,2,0,0,1-1,.8q1.1.23,1.26,2s0,.16,0,.37,0,.37,0,.5l.06.45a1.89,1.89,0,0,0,.11.44.68.68,0,0,0,.17.26H24.12A1.7,1.7,0,0,1,24,8.26q0-.29-.08-.76t0-.51a2,2,0,0,0-.45-1.25,1.78,1.78,0,0,0-1.25-.35H20.48V8.75H18.62Zm1.86,1.48V4h1.78a2.5,2.5,0,0,0,1.22-.25,1,1,0,0,0,.44-1,1,1,0,0,0-.43-.91,2.34,2.34,0,0,0-1.15-.24Z"/><path class="cls-1" d="M27.23,8.75V.2h3.46a4.08,4.08,0,0,1,3.07,1.1,4.36,4.36,0,0,1,1.07,3.17,4.36,4.36,0,0,1-1.07,3.17,4.08,4.08,0,0,1-3.07,1.1Zm1.86-1.56h1.37q2.48,0,2.48-2.71a3,3,0,0,0-.62-2,2.36,2.36,0,0,0-1.87-.7H29.09Z"/><path class="cls-1" d="M38,.2V8.75H36.11V.2Z"/><path class="cls-1" d="M46.06.2V1.74H41.51V3.6h4.18V5.08H41.51v2.1h4.63V8.75H39.65V.2Z"/><path class="cls-1" d="M49.21,6.88V8.75h-1.9V6.88Z"/><path class="cls-1" d="M58.39,5.45A3.89,3.89,0,0,1,57.26,8a3.73,3.73,0,0,1-2.7.95,3.88,3.88,0,0,1-3-1.23,4.62,4.62,0,0,1-1.13-3.26,4.59,4.59,0,0,1,1.15-3.19A3.91,3.91,0,0,1,54.64,0a3.85,3.85,0,0,1,2.56.86,3.08,3.08,0,0,1,1.14,2.2H56.5A1.79,1.79,0,0,0,55.85,2a2,2,0,0,0-1.25-.39A2,2,0,0,0,53.29,2a2.34,2.34,0,0,0-.75,1.07,4.31,4.31,0,0,0-.22,1.39,3.34,3.34,0,0,0,.61,2.11,2,2,0,0,0,1.64.79q1.72,0,2-1.92Z"/><path class="cls-1" d="M63.52,0a4,4,0,0,1,3,1.24A4.57,4.57,0,0,1,67.7,4.49a4.53,4.53,0,0,1-1.16,3.23,4.4,4.4,0,0,1-6.1,0,4.51,4.51,0,0,1-1.16-3.23,4.56,4.56,0,0,1,1.16-3.26A4,4,0,0,1,63.52,0Zm0,1.54a2,2,0,0,0-1.69.79,3.32,3.32,0,0,0-.63,2.12,3.37,3.37,0,0,0,.62,2.16,2.11,2.11,0,0,0,1.72.79,2,2,0,0,0,1.68-.79,3.45,3.45,0,0,0,.61-2.16,3.33,3.33,0,0,0-.62-2.13A2,2,0,0,0,63.49,1.54Z"/></g></g></svg>